<svg xmlns="http://www.w3.org/2000/svg"  viewBox="0 0 64 64" width="100px" height="100px" baseProfile="basic"><path fill="orange" d="M54,20c0-5.523-4.477-10-10-10H32H20c-5.523,0-10,4.477-10,10v24.008c0,5.523,4.477,10,10,10h12h12 c5.523,0,10-4.477,10-10V20z"/><ellipse cx="32" cy="61" opacity=".3" rx="20" ry="3"/><path fill="#fff" d="M14.01,12H14c-2.24,1.69-3.75,4.29-3.97,7.25C10.01,19.49,10,19.75,10,20v12 c2.761,0,5-2.239,5-5v-7c0-0.108,0.003-0.221,0.017-0.38c0.102-1.375,0.778-2.65,1.862-3.525c0.048-0.033,0.095-0.068,0.142-0.103 C17.881,15.343,18.911,15,20,15h5c2.761,0,5-2.239,5-5H20C17.75,10,15.68,10.74,14.01,12z" opacity=".3"/><path d="M54,44V22c-2.761,0-5,2.238-5,5v17c0,2.757-2.243,5-5,5h-5c-2.761,0-5,2.238-5,5h10 C49.523,54,54,49.523,54,44z" opacity=".15"/><path fill="none" stroke="#fff" stroke-linecap="round" stroke-linejoin="round" stroke-miterlimit="10" stroke-width="3" d="M13.5,23.5V20c0-0.153,0.005-0.312,0.018-0.459c0.135-1.809,1.003-3.46,2.396-4.594l0.204-0.152"/><g><path fill="#fff" d="M34.9,38.4c1.5-0.3,2.9-0.9,4.1-1.7c1-0.6,1.3-1.9,0.7-2.9c-0.6-1-1.9-1.3-2.9-0.7 c-2.9,1.8-6.7,1.8-9.6,0c-1-0.6-2.3-0.3-2.9,0.7S24,36.1,25,36.7c1.3,0.8,2.7,1.4,4.1,1.7l-4,4c-0.8,0.8-0.8,2.1,0,3 c0.4,0.4,0.9,0.6,1.5,0.6c0.5,0,1.1-0.2,1.5-0.6l3.9-3.9l3.9,3.9c0.8,0.8,2.1,0.8,3,0c0.8-0.8,0.8-2.1,0-3L34.9,38.4z M32,18 c-3.9,0-7,3.1-7,7s3.1,7,7,7s7-3.1,7-7S35.9,18,32,18z M32,28c-1.7,0-3-1.3-3-3s1.3-3,3-3s3,1.3,3,3S33.7,28,32,28z"/></g></svg>