<svg xmlns="http://www.w3.org/2000/svg"  viewBox="0 0 64 64" width="100px" height="100px" baseProfile="basic"><circle cx="32" cy="32" r="23" fill="#37d0ee"/><ellipse cx="32" cy="61" opacity=".3" rx="19" ry="3"/><path fill="#fff" d="M32,14c2.577,0,4.674-1.957,4.946-4.461C35.352,9.19,33.699,9,32,9	C19.297,9,9,19.297,9,32c0,1.699,0.19,3.352,0.539,4.946C12.044,36.674,14,34.577,14,32C14,22.075,22.075,14,32,14z" opacity=".3"/><path fill="none" stroke="#fff" stroke-linecap="round" stroke-linejoin="round" stroke-miterlimit="10" stroke-width="3" d="M15.047,23.427c1.878-3.699,4.932-6.705,8.666-8.522"/><path d="M54.461,27.054C51.956,27.326,50,29.423,50,32c0,9.925-8.075,18-18,18	c-2.577,0-4.674,1.957-4.946,4.461C28.648,54.81,30.301,55,32,55c12.703,0,23-10.297,23-23C55,30.301,54.81,28.648,54.461,27.054z" opacity=".15"/><path fill="#fff" d="M44.929,24.319c0.052-0.191,0.076-0.369,0.07-0.527C44.982,23.333,44.702,23,44.042,23h-2.945	c-0.744,0-1.087,0.507-1.287,1.015c0,0-1.836,4.255-3.952,7.06c-0.686,0.812-1.035,0.792-1.406,0.792	c-0.199,0-0.702-0.271-0.702-1.015v-6.568c0-0.879-0.195-1.284-0.823-1.284h-5.23C27.238,23,27,23.405,27,23.812	c0,0.845,1.01,1.048,1.125,3.415v4.589c0,1.115-0.172,1.317-0.543,1.317c-1.001,0-2.972-3.8-4.292-8.781	C23.004,23.372,22.718,23,21.975,23h-2.973C18.143,23,18,23.474,18,23.98c0,0.913,0.675,5.851,4.359,11.528	C25.031,39.625,28.551,42,31.667,42c1.888,0,2.081-0.541,2.081-1.386V36.85c0.001-1.015,0.207-1.183,0.808-1.183	c0.429,0,1.303,0.317,2.99,2.533c1.946,2.556,2.299,3.8,3.415,3.8h2.945c0.684,0,1.077-0.323,1.092-0.95	c0.003-0.16-0.017-0.338-0.063-0.537c-0.218-0.73-1.219-2.513-2.468-4.213c-0.692-0.941-1.375-1.873-1.689-2.38	c-0.21-0.331-0.29-0.564-0.28-0.787c0.01-0.234,0.118-0.457,0.28-0.769C40.751,32.364,44.558,26.347,44.929,24.319z"/></svg>